HIERARCHY
ROOT Hips
{
	OFFSET 0.000000 0.000000 0.000000
	CHANNELS 6 Xposition Yposition Zposition Zrotation Yrotation Xrotation
	JOINT LHipJoint
	{
		OFFSET 0.000000 0.000000 0.000000
		CHANNELS 3 Zrotation Yrotation Xrotation
		JOINT LeftUpLeg
		{
			OFFSET 1.363060 -1.794630 0.839290
			CHANNELS 3 Zrotation Yrotation Xrotation
			JOINT LeftLeg
			{
				OFFSET 2.448110 -6.726130 0.000000
				CHANNELS 3 Zrotation Yrotation Xrotation
				JOINT LeftFoot
				{
					OFFSET 2.562200 -7.039590 0.000000
					CHANNELS 3 Zrotation Yrotation Xrotation
					JOINT LeftToeBase
					{
						OFFSET 0.157640 -0.433110 2.322550
						CHANNELS 3 Zrotation Yrotation Xrotation
						End Site
						{
							OFFSET 0.000000 0.000000 0.000000
						}
					}
				}
			}
		}
	}
	JOINT RHipJoint
	{
		OFFSET 0.000000 0.000000 0.000000
		CHANNELS 3 Zrotation Yrotation Xrotation
		JOINT RightUpLeg
		{
			OFFSET -1.305520 -1.794630 0.839290
			CHANNELS 3 Zrotation Yrotation Xrotation
			JOINT RightLeg
			{
				OFFSET -2.542530 -6.985550 0.000000
				CHANNELS 3 Zrotation Yrotation Xrotation
				JOINT RightFoot
				{
					OFFSET -2.568260 -7.056230 0.000000
					CHANNELS 3 Zrotation Yrotation Xrotation
					JOINT RightToeBase
					{
						OFFSET -0.164730 -0.452590 2.363150
						CHANNELS 3 Zrotation Yrotation Xrotation
						End Site
						{
							OFFSET 0.000000 0.000000 0.000000
						}
					}
				}
			}
		}
	}
	JOINT LowerBack
	{
		OFFSET 0.000000 0.000000 0.000000
		CHANNELS 3 Zrotation Yrotation Xrotation
		JOINT Spine
		{
			OFFSET 0.028270 2.035590 -0.193380
			CHANNELS 3 Zrotation Yrotation Xrotation
			JOINT Spine1
			{
				OFFSET 0.056720 2.048850 -0.042750
				CHANNELS 3 Zrotation Yrotation Xrotation
				JOINT Neck
				{
					OFFSET 0.000000 0.000000 0.000000
					CHANNELS 3 Zrotation Yrotation Xrotation
					JOINT Neck1
					{
						OFFSET -0.054170 1.746240 0.172020
						CHANNELS 3 Zrotation Yrotation Xrotation
						JOINT Head
						{
							OFFSET 0.104070 1.761360 -0.123970
							CHANNELS 3 Zrotation Yrotation Xrotation
							End Site
							{
								OFFSET 0.000000 0.000000 0.000000
							}
						}
					}
				}
				JOINT LeftShoulder
				{
					OFFSET 0.000000 0.000000 0.000000
					CHANNELS 3 Zrotation Yrotation Xrotation
					JOINT LeftArm
					{
						OFFSET 3.362410 1.200890 -0.311210
						CHANNELS 3 Zrotation Yrotation Xrotation
						JOINT LeftForeArm
						{
							OFFSET 4.983000 -0.000000 -0.000000
							CHANNELS 3 Zrotation Yrotation Xrotation
							JOINT LeftHand
							{
								OFFSET 3.483560 -0.000000 -0.000000
								CHANNELS 3 Zrotation Yrotation Xrotation
								JOINT LeftFingerBase
								{
									OFFSET 0.000000 0.000000 0.000000
									CHANNELS 3 Zrotation Yrotation Xrotation
									JOINT LeftHandIndex1
									{
										OFFSET 0.715260 -0.000000 -0.000000
										CHANNELS 3 Zrotation Yrotation Xrotation
										End Site
										{
											OFFSET 0.000000 0.000000 0.000000
										}
									}
								}
								JOINT LThumb
								{
									OFFSET 0.000000 0.000000 0.000000
									CHANNELS 3 Zrotation Yrotation Xrotation
									End Site
									{
										OFFSET 0.000000 0.000000 0.000000
									}
								}
							}
						}
					}
				}
				JOINT RightShoulder
				{
					OFFSET 0.000000 0.000000 0.000000
					CHANNELS 3 Zrotation Yrotation Xrotation
					JOINT RightArm
					{
						OFFSET -3.136600 1.374050 -0.404650
						CHANNELS 3 Zrotation Yrotation Xrotation
						JOINT RightForeArm
						{
							OFFSET -5.241900 -0.000000 -0.000000
							CHANNELS 3 Zrotation Yrotation Xrotation
							JOINT RightHand
							{
								OFFSET -3.444170 -0.000000 -0.000000
								CHANNELS 3 Zrotation Yrotation Xrotation
								JOINT RightFingerBase
								{
									OFFSET 0.000000 0.000000 0.000000
									CHANNELS 3 Zrotation Yrotation Xrotation
									JOINT RightHandIndex1
									{
										OFFSET -0.622530 -0.000000 -0.000000
										CHANNELS 3 Zrotation Yrotation Xrotation
										End Site
										{
											OFFSET 0.000000 0.000000 0.000000
										}
									}
								}
								JOINT RThumb
								{
									OFFSET 0.000000 0.000000 0.000000
									CHANNELS 3 Zrotation Yrotation Xrotation
									End Site
									{
										OFFSET 0.000000 0.000000 0.000000
									}
								}
							}
						}
					}
				}
			}
		}
	}
}
MOTION
Frames: 8
Frame Time: 0.008333
-0.002483 -0.009030 0.104121 -0.197398 -0.015191 -0.034503 -0.056713 -0.019661 -0.023130 0.327449 -0.110760 0.014675 -0.362236 -0.358677 -1.438929 -0.159457 0.671599 0.102040 -0.005357 0.029603 0.082900 0.013383 -0.001618 0.002630 0.277302 -0.142266 0.510584 0.032682 0.075386 -0.192658 0.009975 -0.076049 -0.160695 0.002817 -0.058213 0.160167 0.165419 0.068616 0.029385 0.021493 0.096967 0.027353 -0.036522 0.052954 0.073905 0.064235 -0.043191 -0.076303 -0.030976 -0.064593 0.006642 -0.037667 -0.024246 0.021650 0.005032 -0.003994 0.007858 -0.037308 0.058717 0.018941 -0.086885 0.129732 0.039044 -0.018659 0.033442 0.059141 0.086311 -0.354117 -0.057715 0.000000 0.000000 0.000000 0.290897 -0.359879 0.188611 -0.003995 0.010185 0.004362 -0.231432 0.327370 0.301510 -0.135407 0.182317 -0.076318 0.003085 0.031323 -0.411079 0.106809 -0.136803 0.088479 -0.000000 0.000000 0.000000 0.072131 -0.176571 0.033580
0.023142 0.107011 0.034840 -0.139853 0.054909 -0.031706 0.015899 -0.003299 0.021970 0.252085 -0.161516 -0.353839 -0.497419 -0.449471 -1.694867 -0.206811 0.434519 -0.169312 -0.053276 -0.131335 -0.512388 -0.188339 -0.086819 -0.108320 0.007380 -0.354098 0.091008 -0.065634 -0.098800 -0.267082 -0.060401 -0.481717 -0.644921 -0.048631 -0.194050 -0.087550 0.132602 0.016485 -0.118235 -0.010112 0.050967 -0.069808 -0.092285 0.037907 -0.025600 -0.064898 -0.126245 -0.247313 -0.070757 -0.186263 -0.083553 -0.102247 -0.063996 -0.042028 -0.104082 -0.090284 -0.018075 -0.943722 -0.079217 -0.453935 -0.180665 -0.132211 -0.015499 -0.036964 -0.004424 -0.341471 -0.088678 -0.701588 -0.203988 -0.065256 0.000000 0.000000 -0.428809 -1.182530 -0.691904 -0.132937 -0.083747 -0.035304 -0.461547 0.154894 0.180163 -0.597559 0.011198 -0.317442 -0.019642 0.004647 -0.680580 -1.403067 -0.477666 -0.930913 0.004143 0.000000 0.000000 -1.222681 -1.086996 -0.882804
0.010512 0.122380 -0.385100 -0.056601 0.082050 -0.165854 -0.023769 -0.038195 0.047904 0.075828 -0.260630 -0.799362 -0.648530 -0.515051 -1.879591 -0.237459 0.277820 -0.368995 -0.086584 -0.249521 -0.938441 -0.330002 -0.150765 -0.183720 -0.164331 -0.486245 -0.141631 -0.181406 -0.300185 -0.257221 -0.117279 -0.885026 -1.084041 -0.091497 -0.331161 -0.163954 0.144050 -0.036993 -0.255276 -0.039787 0.001788 -0.173880 -0.154667 0.024605 -0.111716 -0.205532 -0.219623 -0.407454 -0.103003 -0.312344 -0.183424 -0.164506 -0.103234 -0.115453 -0.220114 -0.180927 -0.044635 -1.832279 -0.214473 -0.909651 -0.273048 -0.393119 -0.069578 -0.054655 -0.042101 -0.722757 -0.254469 -1.022491 -0.339672 -0.128000 0.000000 0.000000 -1.030228 -1.913724 -1.489265 -0.240910 -0.161685 -0.065835 -0.567884 0.053315 0.144302 -0.962249 -0.064615 -0.485667 -0.034949 -0.009699 -0.851577 -2.172785 -0.476560 -1.579898 0.019225 0.000000 0.000000 -1.819246 -1.641597 -0.958115
-0.037150 0.154261 -0.799820 0.031571 0.109826 -0.360965 -0.101769 -0.083721 0.066931 -0.092079 -0.345652 -1.167405 -0.785732 -0.541364 -1.970414 -0.253027 0.183175 -0.487681 -0.105792 -0.321778 -1.225918 -0.406370 -0.191951 -0.218354 -0.220593 -0.566951 -0.268230 -0.272145 -0.456693 -0.066529 -0.138248 -1.150437 -1.315956 -0.107280 -0.405698 -0.093129 0.195827 -0.075489 -0.334510 -0.047876 -0.019554 -0.228467 -0.187260 0.024604 -0.144532 -0.309033 -0.286087 -0.513042 -0.113304 -0.400999 -0.233133 -0.198504 -0.125427 -0.157214 -0.300095 -0.239775 -0.063346 -2.525853 -0.281756 -1.186781 -0.317972 -0.589540 -0.107867 -0.067022 -0.067880 -0.953596 -0.338886 -1.223938 -0.420113 -0.180358 0.000000 0.000000 -1.398590 -2.385010 -2.042501 -0.311667 -0.213668 -0.087223 -0.540594 -0.007376 0.161750 -1.291469 -0.101957 -0.624189 -0.047163 -0.020478 -0.989003 -2.794933 -0.392084 -2.162307 0.036804 0.000000 0.000000 -2.360291 -2.150808 -1.067223
-0.069380 0.243129 -1.107271 0.137441 0.228781 -0.487570 -0.080740 -0.090746 0.124818 -0.244090 -0.402938 -1.454144 -0.939236 -0.603836 -2.177093 -0.282697 0.052564 -0.652716 -0.132883 -0.424017 -1.576619 -0.486620 -0.236784 -0.270951 -0.325127 -0.635654 -0.370170 -0.383407 -0.616952 0.216454 -0.150782 -1.476896 -1.592077 -0.117722 -0.476540 0.092554 0.268195 -0.119737 -0.407680 -0.046548 -0.038453 -0.291194 -0.224764 0.026014 -0.188831 -0.424872 -0.355297 -0.634276 -0.132843 -0.508802 -0.313671 -0.247422 -0.152985 -0.216332 -0.399118 -0.314859 -0.086273 -3.300062 -0.380728 -1.555674 -0.386161 -0.818724 -0.154401 -0.082323 -0.101148 -1.279646 -0.479191 -1.503660 -0.535936 -0.241015 0.000000 0.000000 -1.858847 -2.973230 -2.714278 -0.400833 -0.286602 -0.115400 -0.639389 -0.119801 0.078019 -1.779489 -0.280420 -0.858310 -0.074173 -0.045991 -1.269265 -4.260396 -0.594661 -3.345472 0.038339 0.000000 0.000000 -3.746734 -3.170335 -1.750010
-0.176663 0.256056 -1.753697 0.165662 0.324985 -0.623431 -0.078685 -0.099539 0.195020 -0.358113 -0.435189 -1.584768 -1.071079 -0.608553 -2.207164 -0.292744 -0.001383 -0.753078 -0.148338 -0.504197 -1.857795 -0.551234 -0.275898 -0.309543 -0.398347 -0.686506 -0.431168 -0.482432 -0.764524 0.642635 -0.133987 -1.733191 -1.776262 -0.119717 -0.529692 0.278151 0.362021 -0.170399 -0.491812 -0.044163 -0.057813 -0.356670 -0.263686 0.029543 -0.218372 -0.542490 -0.422184 -0.714363 -0.142254 -0.573898 -0.334737 -0.260246 -0.157331 -0.230683 -0.447140 -0.347003 -0.099373 -3.800402 -0.385875 -1.661511 -0.384529 -0.947317 -0.176049 -0.088590 -0.114710 -1.348819 -0.477625 -1.562191 -0.549798 -0.281497 0.000000 0.000000 -1.926655 -3.049270 -2.941479 -0.428077 -0.320858 -0.124133 -0.461904 -0.101028 0.191024 -2.039209 -0.252167 -0.934872 -0.084900 -0.052609 -1.386560 -4.712794 -0.295793 -3.832912 0.058166 0.000000 0.000000 -4.284466 -3.736193 -1.555000
-0.216681 0.403276 -1.863325 0.217226 0.456238 -0.781777 -0.083300 -0.079087 0.287310 -0.463273 -0.450150 -1.669437 -1.188827 -0.587336 -2.174659 -0.294984 -0.001362 -0.820604 -0.158086 -0.561756 -2.051236 -0.576003 -0.299266 -0.321554 -0.402095 -0.682318 -0.394700 -0.584352 -0.918595 1.109850 -0.114479 -2.045953 -1.994535 -0.112937 -0.573617 0.585603 0.503319 -0.211291 -0.529913 -0.017182 -0.048579 -0.380299 -0.276153 0.052618 -0.174284 -0.610977 -0.447897 -0.723706 -0.130564 -0.595739 -0.294278 -0.242825 -0.143350 -0.210161 -0.454098 -0.347228 -0.104212 -4.073712 -0.315066 -1.576059 -0.331309 -1.010750 -0.181031 -0.089231 -0.116756 -1.268376 -0.393878 -1.497027 -0.510563 -0.310379 0.000000 0.000000 -1.744693 -2.832366 -2.905355 -0.416575 -0.328328 -0.121234 -0.114817 -0.020423 0.384299 -2.218954 -0.139555 -0.944165 -0.090316 -0.048658 -1.415540 -4.571814 0.292820 -3.888170 0.090866 0.000000 0.000000 -3.972250 -3.851161 -0.532438
-0.253198 0.555139 -1.969355 0.266928 0.587154 -0.945696 -0.089474 -0.066625 0.370895 -0.586718 -0.464608 -1.725473 -1.302733 -0.568304 -2.141740 -0.295356 0.015934 -0.853292 -0.163037 -0.602132 -2.191867 -0.572521 -0.312518 -0.314187 -0.349070 -0.647606 -0.300000 -0.679121 -1.059066 1.623505 -0.086877 -2.324089 -2.178694 -0.099067 -0.604087 0.928797 0.655360 -0.249228 -0.557322 0.013934 -0.034101 -0.398063 -0.284694 0.078455 -0.119251 -0.672558 -0.466719 -0.716626 -0.112050 -0.605255 -0.236791 -0.218368 -0.125047 -0.182355 -0.452321 -0.338533 -0.106960 -4.283433 -0.221821 -1.432684 -0.261464 -1.052646 -0.180560 -0.088154 -0.114972 -1.143541 -0.286651 -1.394041 -0.454245 -0.335970 0.000000 0.000000 -1.487555 -2.510865 -2.768877 -0.389514 -0.323899 -0.113928 0.296853 0.077027 0.601684 -2.386265 -0.013408 -0.939467 -0.094500 -0.043246 -1.432890 -4.384069 0.910636 -3.921882 0.124145 0.000000 0.000000 -3.512882 -3.907720 0.620739
